<?xml version="1.0" standalone="no"?>
<!DOCTYPE svg PUBLIC "-//W3C//DTD SVG 20010904//EN"
 "http://www.w3.org/TR/2001/REC-SVG-20010904/DTD/svg10.dtd">
<svg version="1.0" xmlns="http://www.w3.org/2000/svg"
 width="750.000000pt" height="750.000000pt" viewBox="0 0 750.000000 750.000000"
 preserveAspectRatio="xMidYMid meet">
<metadata>
Created by potrace 1.14, written by Peter Selinger 2001-2017
</metadata>
<g transform="translate(0.000000,750.000000) scale(0.100000,-0.100000)"
fill="#000000" stroke="none">
<path d="M3619 7266 c-2 -3 -22 -7 -45 -10 -168 -20 -402 -112 -688 -271 -68
-38 -381 -244 -421 -277 -11 -9 -72 -57 -135 -106 -356 -277 -786 -697 -1081
-1056 -13 -16 -38 -46 -54 -65 -165 -193 -411 -542 -568 -802 -182 -305 -369
-733 -411 -945 -2 -10 -9 -39 -15 -64 -55 -226 -50 -530 14 -780 151 -594 621
-1237 1280 -1753 321 -250 746 -496 1135 -656 69 -29 133 -57 144 -62 10 -6
26 -12 35 -14 9 -2 77 -24 151 -49 139 -47 302 -94 355 -102 17 -3 37 -8 45
-11 8 -3 22 -7 30 -9 31 -6 66 -12 105 -18 22 -4 47 -9 55 -12 8 -3 37 -7 65
-10 27 -3 57 -7 65 -10 8 -3 40 -8 70 -10 30 -3 82 -9 115 -14 76 -11 592 -11
665 0 30 5 80 11 110 15 173 19 471 95 667 171 262 101 562 269 743 416 19 16
40 32 45 37 255 196 529 514 719 831 100 168 246 460 246 494 0 6 4 16 9 22
32 32 157 473 186 652 3 17 7 44 9 60 25 153 30 226 31 422 0 235 -3 275 -34
455 -50 287 -129 549 -257 853 -115 272 -238 505 -413 782 -94 149 -280 412
-311 440 -3 3 -34 41 -70 85 -35 44 -78 96 -96 115 -18 19 -58 64 -91 99 -376
414 -859 769 -1288 947 -49 20 -103 43 -120 49 -89 38 -375 116 -470 129 -11
2 -36 6 -55 10 -19 3 -55 9 -80 12 -57 7 -385 16 -391 10z"/>
</g>
</svg>
